<svg width="40" height="40" viewBox="0 0 40 40" fill="none" xmlns="http://www.w3.org/2000/svg">
    <path d="M6.212,26.6V15.895h3.814v-2.18H-0.213v2.18H3.61V26.6h2.6Zm14.467-4.737V23.5a5.616,5.616,0,0,1-1.411.778,4.478,4.478,0,0,1-1.639.321,3.4,3.4,0,0,1-2.672-1.147,5.045,5.045,0,0,1-1.02-3.441A4.553,4.553,0,0,1,14.944,16.8a3.525,3.525,0,0,1,2.711-1.081,3.1,3.1,0,0,1,1.876.549,2.729,2.729,0,0,1,1.024,1.5l2.584-.483A4.545,4.545,0,0,0,21.4,14.5,6.155,6.155,0,0,0,17.655,13.5a6.666,6.666,0,0,0-3.085.642,5.683,5.683,0,0,0-2.47,2.4,7.417,7.417,0,0,0-.844,3.577,7.838,7.838,0,0,0,.756,3.432,5.392,5.392,0,0,0,2.259,2.426,7.051,7.051,0,0,0,3.524.848,8.623,8.623,0,0,0,3.142-.6,7.057,7.057,0,0,0,2.369-1.393V19.692H17.7v2.171h2.98Zm7.55,4.737V13.715h-2.6V26.6h2.6Zm7.98,0V15.895h3.814v-2.18H29.784v2.18h3.823V26.6h2.6Z"
          fill="url(#paint0_linear)"/>
    <defs>
        <linearGradient id="paint0_linear" x1="2.94192" y1="4.89955" x2="37.7772" y2="39.7345" gradientUnits="userSpaceOnUse">
            <stop offset="0.15937" stop-color="#3BEA62"/>
            <stop offset="0.5404" stop-color="#3C99CC"/>
            <stop offset="0.93739" stop-color="#6B57FF"/>
        </linearGradient>
    </defs>
</svg>
